<?xml version="1.0" encoding="UTF-8" standalone="no"?> <svg xmlns="http://www.w3.org/2000/svg" viewBox="0 0 48 48"><defs><style>.cls-1{fill:#00cf66;}.cls-2{fill:#fd3730;}.cls-3{fill:#009ae0;}.cls-4{fill:#fac100;}.cls-5{fill:#00b157;}.cls-6{fill:#d3241f;}.cls-7{fill:#0081bd;}.cls-8{fill:#ff9500;}.cls-9{fill:#eaeff0;}</style></defs><title>Math</title><g id="_31_-_40" data-name="31 - 40"><g id="Math"><rect class="cls-1" x="4" y="4" width="40" height="40" rx="5"/><path class="cls-2" d="M24,24V44H9a5,5,0,0,1-5-5V24Z"/><path class="cls-3" d="M44,24V39a5,5,0,0,1-5,5H24V24Z"/><path class="cls-4" d="M44,9V24H24V4H39A5,5,0,0,1,44,9Z"/><rect class="cls-5" x="4" y="20" width="20" height="4"/><path class="cls-6" d="M9,44H24V40H4.1A5,5,0,0,0,9,44Z"/><path class="cls-7" d="M43.9,40H24v4H39A5,5,0,0,0,43.9,40Z"/><rect class="cls-8" x="24" y="20" width="20" height="4"/><path class="cls-9" d="M17.5,13H15V10.5a1,1,0,0,0-2,0V13H10.5a1,1,0,0,0,0,2H13v2.5a1,1,0,0,0,2,0V15h2.5a1,1,0,0,0,0-2Z"/><path class="cls-9" d="M17.182,30.818a1,1,0,0,0-1.414,0L14,32.586l-1.768-1.768a1,1,0,1,0-1.414,1.414L12.586,34l-1.768,1.768a1,1,0,1,0,1.414,1.414L14,35.414l1.768,1.768a1,1,0,1,0,1.414-1.414L15.414,34l1.768-1.768A1,1,0,0,0,17.182,30.818Z"/><path class="cls-9" d="M30.5,15h7a1,1,0,0,0,0-2h-7a1,1,0,0,0,0,2Z"/><path class="cls-9" d="M37.5,31h-7a1,1,0,0,0,0,2h7a1,1,0,0,0,0-2Z"/><path class="cls-9" d="M37.5,35h-7a1,1,0,0,0,0,2h7a1,1,0,0,0,0-2Z"/></g></g></svg>